<svg width="155" height="46" viewBox="0 0 155 46" fill="none" xmlns="http://www.w3.org/2000/svg">
<path d="M11.6116 6.99316L8.63395 7.30369C8.50936 6.84824 8.23942 6.44662 7.82413 6.09883C7.40884 5.74275 6.82327 5.56472 6.06744 5.56472C5.38636 5.56472 4.81325 5.71377 4.34812 6.01188C3.8913 6.30999 3.66289 6.69091 3.66289 7.15464C3.66289 7.5604 3.81239 7.89577 4.11141 8.16076C4.41872 8.41746 4.92538 8.62448 5.63138 8.78182L8.01101 9.27867C9.31503 9.55193 10.291 9.9991 10.9388 10.6202C11.5867 11.2412 11.9106 12.0445 11.9106 13.0299C11.9106 13.8994 11.6573 14.6695 11.1506 15.3402C10.644 16.011 9.94213 16.5327 9.04509 16.9053C8.15636 17.2779 7.13059 17.4643 5.96777 17.4643C4.26506 17.4643 2.8946 17.1082 1.85636 16.396C0.826434 15.6756 0.207647 14.6778 0 13.4025L3.20191 13.1044C3.34311 13.7255 3.65043 14.1975 4.12386 14.5204C4.6056 14.8351 5.22024 14.9924 5.96777 14.9924C6.74852 14.9924 7.37561 14.8351 7.84905 14.5204C8.32248 14.1975 8.5592 13.8041 8.5592 13.3404C8.5592 12.562 7.93626 12.032 6.69038 11.7505L4.31075 11.2536C2.9735 10.9638 1.9851 10.4959 1.34555 9.85004C0.705999 9.19586 0.386223 8.36364 0.386223 7.35337C0.386223 6.49217 0.62294 5.74689 1.09637 5.11755C1.56981 4.48821 2.23013 3.99964 3.07732 3.65184C3.92452 3.30405 4.90462 3.13015 6.0176 3.13015C7.65386 3.13015 8.93712 3.48209 9.86737 4.18596C10.8059 4.88155 11.3873 5.81728 11.6116 6.99316Z" fill="url(#paint0_linear_180_312)"/>
<path d="M19.7472 17.4643C18.385 17.4643 17.2056 17.1662 16.2089 16.5699C15.2122 15.9737 14.4398 15.1374 13.8916 14.0608C13.3517 12.9843 13.0817 11.7339 13.0817 10.3096C13.0817 8.87705 13.3517 7.6225 13.8916 6.54599C14.4398 5.46121 15.2122 4.6207 16.2089 4.02448C17.2056 3.42826 18.385 3.13015 19.7472 3.13015C21.1094 3.13015 22.2888 3.42826 23.2855 4.02448C24.2822 4.6207 25.0547 5.46121 25.6028 6.54599C26.151 7.6225 26.4251 8.87705 26.4251 10.3096C26.4251 11.7339 26.151 12.9843 25.6028 14.0608C25.0547 15.1374 24.2822 15.9737 23.2855 16.5699C22.2888 17.1662 21.1094 17.4643 19.7472 17.4643ZM19.7472 14.831C20.503 14.831 21.126 14.6322 21.616 14.2347C22.1061 13.829 22.4715 13.2824 22.7124 12.5951C22.9616 11.9078 23.0862 11.146 23.0862 10.3096C23.0862 9.45671 22.9616 8.68659 22.7124 7.99928C22.4715 7.31197 22.1061 6.76958 21.616 6.3721C21.126 5.96634 20.503 5.76346 19.7472 5.76346C19.008 5.76346 18.3892 5.96634 17.8908 6.3721C17.3925 6.76958 17.0187 7.31197 16.7696 7.99928C16.5287 8.68659 16.4082 9.45671 16.4082 10.3096C16.4082 11.146 16.5287 11.9078 16.7696 12.5951C17.0187 13.2824 17.3925 13.829 17.8908 14.2347C18.3892 14.6322 19.008 14.831 19.7472 14.831Z" fill="url(#paint1_linear_180_312)"/>
<path d="M31.5083 9.06751V17.191H28.2317V3.30405H31.446V5.67651H31.608C31.9236 4.89811 32.4178 4.28119 33.0906 3.82574C33.7717 3.36202 34.6355 3.13015 35.682 3.13015C36.6455 3.13015 37.4844 3.33303 38.1987 3.73879C38.913 4.14455 39.4653 4.74077 39.8557 5.52745C40.2544 6.30585 40.4537 7.24986 40.4537 8.3595V17.191H37.1771V8.86877C37.1771 7.94131 36.9362 7.21674 36.4545 6.69505C35.9727 6.16508 35.3083 5.90009 34.4611 5.90009C33.8879 5.90009 33.3771 6.0243 32.9286 6.27273C32.4884 6.52115 32.1396 6.88137 31.8821 7.35337C31.6329 7.8171 31.5083 8.38848 31.5083 9.06751Z" fill="url(#paint2_linear_180_312)"/>
<path d="M48.9133 22.6812C47.1441 22.6812 45.7529 22.3375 44.7396 21.6502C43.7263 20.9712 43.0742 20.1473 42.7835 19.1784L45.7238 18.458C45.8567 18.7312 46.0519 19.0004 46.3094 19.2653C46.5669 19.5386 46.9116 19.7622 47.3435 19.9361C47.7754 20.1183 48.3194 20.2094 48.9756 20.2094C49.9058 20.2094 50.6741 19.9816 51.2804 19.5262C51.8951 19.079 52.2024 18.3462 52.2024 17.3276V14.7067H52.0155C51.8577 15.038 51.6168 15.3816 51.2929 15.7377C50.969 16.0855 50.5412 16.3836 50.0096 16.632C49.4864 16.8722 48.8219 16.9923 48.0162 16.9923C46.9531 16.9923 45.9854 16.7397 45.1133 16.2346C44.2495 15.7294 43.5601 14.9759 43.0452 13.9739C42.5385 12.9719 42.2852 11.7174 42.2852 10.2103C42.2852 8.68659 42.5385 7.39892 43.0452 6.34725C43.5601 5.29559 44.2537 4.49649 45.1258 3.94995C45.9979 3.40342 46.9697 3.13015 48.0412 3.13015C48.8551 3.13015 49.5279 3.26679 50.0595 3.54005C50.5911 3.81332 51.0147 4.14455 51.3303 4.53375C51.6459 4.91467 51.8909 5.27075 52.0653 5.60198H52.2398V3.30405H55.4417V17.4146C55.4417 18.5987 55.1593 19.58 54.5945 20.3584C54.0297 21.1368 53.2531 21.7165 52.2647 22.0974C51.2846 22.4866 50.1675 22.6812 48.9133 22.6812ZM48.9382 14.4211C49.9847 14.4211 50.7904 14.0484 51.3552 13.3031C51.9283 12.5496 52.2149 11.5104 52.2149 10.1854C52.2149 9.30765 52.0903 8.54167 51.8411 7.88749C51.5919 7.2333 51.2223 6.72403 50.7323 6.35968C50.2422 5.99532 49.6442 5.81314 48.9382 5.81314C48.2073 5.81314 47.5968 6.0036 47.1067 6.38452C46.6167 6.76544 46.2471 7.28713 45.9979 7.94959C45.757 8.60378 45.6366 9.34905 45.6366 10.1854C45.6366 11.0301 45.7612 11.7712 46.0104 12.4088C46.2595 13.0464 46.6292 13.5433 47.1192 13.8994C47.6176 14.2472 48.2239 14.4211 48.9382 14.4211Z" fill="url(#paint3_linear_180_312)"/>
<path d="M70.1804 3.30405V5.83798H62.1944V3.30405H70.1804ZM64.1504 0H67.4271V13.0175C67.4271 13.564 67.5475 13.9698 67.7884 14.2347C68.0292 14.4914 68.4113 14.6198 68.9346 14.6198C69.0758 14.6198 69.2336 14.6074 69.408 14.5825C69.5824 14.5577 69.7402 14.5287 69.8814 14.4956L70.4421 17.0544C70.0932 17.162 69.7402 17.2407 69.3831 17.2904C69.0259 17.3483 68.6688 17.3773 68.3116 17.3773C67.0159 17.3773 65.9984 17.0378 65.2592 16.3588C64.52 15.6715 64.1504 14.7357 64.1504 13.5516V0Z" fill="url(#paint4_linear_180_312)"/>
<path d="M77.9049 17.4643C76.5427 17.4643 75.3633 17.1662 74.3666 16.5699C73.3699 15.9737 72.5975 15.1374 72.0493 14.0608C71.5094 12.9843 71.2394 11.7339 71.2394 10.3096C71.2394 8.87705 71.5094 7.6225 72.0493 6.54599C72.5975 5.46121 73.3699 4.6207 74.3666 4.02448C75.3633 3.42826 76.5427 3.13015 77.9049 3.13015C79.2671 3.13015 80.4465 3.42826 81.4432 4.02448C82.4399 4.6207 83.2124 5.46121 83.7605 6.54599C84.3087 7.6225 84.5828 8.87705 84.5828 10.3096C84.5828 11.7339 84.3087 12.9843 83.7605 14.0608C83.2124 15.1374 82.4399 15.9737 81.4432 16.5699C80.4465 17.1662 79.2671 17.4643 77.9049 17.4643ZM77.9049 14.831C78.6607 14.831 79.2837 14.6322 79.7737 14.2347C80.2638 13.829 80.6292 13.2824 80.8701 12.5951C81.1193 11.9078 81.2439 11.146 81.2439 10.3096C81.2439 9.45671 81.1193 8.68659 80.8701 7.99928C80.6292 7.31197 80.2638 6.76958 79.7737 6.3721C79.2837 5.96634 78.6607 5.76346 77.9049 5.76346C77.1657 5.76346 76.5469 5.96634 76.0485 6.3721C75.5502 6.76958 75.1764 7.31197 74.9273 7.99928C74.6864 8.68659 74.5659 9.45671 74.5659 10.3096C74.5659 11.146 74.6864 11.9078 74.9273 12.5951C75.1764 13.2824 75.5502 13.829 76.0485 14.2347C76.5469 14.6322 77.1657 14.831 77.9049 14.831Z" fill="url(#paint5_linear_180_312)"/>
<path d="M97.839 17.4643C96.4519 17.4643 95.26 17.162 94.2633 16.5575C93.2666 15.9447 92.5025 15.1001 91.9709 14.0236C91.4393 12.9471 91.1735 11.7091 91.1735 10.3096C91.1735 8.89361 91.4435 7.64734 91.9834 6.57084C92.5232 5.49433 93.2915 4.65383 94.2882 4.04932C95.2849 3.43654 96.4602 3.13015 97.8141 3.13015C98.952 3.13015 99.957 3.33717 100.829 3.75121C101.701 4.16526 102.395 4.74905 102.91 5.50261C103.433 6.24788 103.732 7.12151 103.807 8.12349H100.667C100.584 7.67633 100.422 7.27471 100.181 6.91863C99.9404 6.56256 99.6248 6.28101 99.2344 6.07399C98.8523 5.86697 98.3955 5.76346 97.8639 5.76346C97.1911 5.76346 96.6014 5.94563 96.0948 6.30999C95.5964 6.66607 95.206 7.17948 94.9236 7.85022C94.6412 8.52097 94.5 9.32421 94.5 10.2599C94.5 11.204 94.6371 12.0196 94.9112 12.7069C95.1853 13.386 95.5756 13.9118 96.0823 14.2844C96.589 14.6488 97.1828 14.831 97.8639 14.831C98.5865 14.831 99.197 14.6198 99.6954 14.1975C100.202 13.7752 100.526 13.1914 100.667 12.4461H103.807C103.732 13.4315 103.441 14.301 102.935 15.0545C102.428 15.8081 101.743 16.4002 100.879 16.8308C100.015 17.2531 99.0018 17.4643 97.839 17.4643Z" fill="url(#paint6_linear_180_312)"/>
<path d="M111.643 17.4643C110.281 17.4643 109.102 17.1662 108.105 16.5699C107.108 15.9737 106.336 15.1374 105.788 14.0608C105.248 12.9843 104.978 11.7339 104.978 10.3096C104.978 8.87705 105.248 7.6225 105.788 6.54599C106.336 5.46121 107.108 4.6207 108.105 4.02448C109.102 3.42826 110.281 3.13015 111.643 3.13015C113.006 3.13015 114.185 3.42826 115.182 4.02448C116.178 4.6207 116.951 5.46121 117.499 6.54599C118.047 7.6225 118.321 8.87705 118.321 10.3096C118.321 11.7339 118.047 12.9843 117.499 14.0608C116.951 15.1374 116.178 15.9737 115.182 16.5699C114.185 17.1662 113.006 17.4643 111.643 17.4643ZM111.643 14.831C112.399 14.831 113.022 14.6322 113.512 14.2347C114.002 13.829 114.368 13.2824 114.609 12.5951C114.858 11.9078 114.982 11.146 114.982 10.3096C114.982 9.45671 114.858 8.68659 114.609 7.99928C114.368 7.31197 114.002 6.76958 113.512 6.3721C113.022 5.96634 112.399 5.76346 111.643 5.76346C110.904 5.76346 110.285 5.96634 109.787 6.3721C109.289 6.76958 108.915 7.31197 108.666 7.99928C108.425 8.68659 108.304 9.45671 108.304 10.3096C108.304 11.146 108.425 11.9078 108.666 12.5951C108.915 13.2824 109.289 13.829 109.787 14.2347C110.285 14.6322 110.904 14.831 111.643 14.831Z" fill="url(#paint7_linear_180_312)"/>
<path d="M132.088 3.30405L127.13 17.191H123.492L118.546 3.30405H122.046L125.273 13.6261H125.423L128.625 3.30405H132.088Z" fill="url(#paint8_linear_180_312)"/>
<path d="M139.103 17.4643C137.707 17.4643 136.503 17.1744 135.49 16.5948C134.476 16.0068 133.695 15.1788 133.147 14.1105C132.607 13.0423 132.337 11.7836 132.337 10.3345C132.337 8.90189 132.607 7.64734 133.147 6.57084C133.687 5.48605 134.447 4.6414 135.427 4.0369C136.407 3.4324 137.562 3.13015 138.891 3.13015C139.746 3.13015 140.556 3.26679 141.32 3.54005C142.093 3.81332 142.774 4.23564 143.363 4.80702C143.961 5.3784 144.431 6.10711 144.771 6.99316C145.112 7.87093 145.282 8.91845 145.282 10.1357V11.1543H133.87V8.95572H143.65L142.118 9.60162C142.118 8.81494 141.997 8.13177 141.756 7.55211C141.515 6.96418 141.158 6.50459 140.685 6.17336C140.211 5.84212 139.622 5.67651 138.916 5.67651C138.21 5.67651 137.608 5.84212 137.109 6.17336C136.611 6.50459 136.233 6.95175 135.975 7.51485C135.718 8.06967 135.589 8.69073 135.589 9.37804V10.9059C135.589 11.7505 135.735 12.4751 136.025 13.0796C136.324 13.6758 136.74 14.1312 137.271 14.4459C137.811 14.7606 138.438 14.9179 139.152 14.9179C139.618 14.9179 140.041 14.8517 140.423 14.7192C140.814 14.5867 141.146 14.3879 141.42 14.123C141.702 13.8497 141.918 13.5143 142.068 13.1168L145.133 13.477C144.933 14.2803 144.564 14.9842 144.024 15.5887C143.492 16.1849 142.807 16.6486 141.968 16.9798C141.137 17.3028 140.182 17.4643 139.103 17.4643Z" fill="url(#paint9_linear_180_312)"/>
<path d="M147.064 17.191V3.30405H150.241V5.63924H150.39C150.639 4.82772 151.075 4.20666 151.698 3.77606C152.321 3.33717 153.032 3.11773 153.829 3.11773C154.003 3.11773 154.203 3.12601 154.427 3.14257C154.659 3.15914 154.85 3.17984 155 3.20468V6.21062C154.859 6.16094 154.639 6.11953 154.34 6.08641C154.041 6.05329 153.754 6.03672 153.48 6.03672C152.874 6.03672 152.334 6.16508 151.86 6.42178C151.387 6.67849 151.013 7.03042 150.739 7.47759C150.473 7.92475 150.34 8.44644 150.34 9.04266V17.191H147.064Z" fill="url(#paint10_linear_180_312)"/>
<path d="M6.653 46C4.88385 46 3.49262 45.6563 2.4793 44.969C1.46599 44.29 0.813975 43.4661 0.52327 42.4972L3.46355 41.7768C3.59644 42.05 3.79163 42.3192 4.04911 42.5842C4.30659 42.8574 4.65129 43.081 5.08319 43.2549C5.5151 43.4371 6.05913 43.5282 6.7153 43.5282C7.64555 43.5282 8.41385 43.3004 9.02017 42.845C9.63481 42.3978 9.94213 41.665 9.94213 40.6464V38.0256H9.75524C9.59743 38.3568 9.35656 38.7004 9.03263 39.0565C8.7087 39.4043 8.28095 39.7024 7.74938 39.9509C7.22611 40.191 6.56164 40.3111 5.75597 40.3111C4.69282 40.3111 3.72518 40.0585 2.85307 39.5534C1.98926 39.0482 1.29987 38.2947 0.784905 37.2927C0.278247 36.2907 0.0249176 35.0362 0.0249176 33.5291C0.0249176 32.0054 0.278247 30.7177 0.784905 29.6661C1.29987 28.6144 1.99341 27.8153 2.86553 27.2688C3.73764 26.7222 4.70943 26.449 5.78089 26.449C6.59486 26.449 7.26764 26.5856 7.79921 26.8589C8.33079 27.1321 8.75439 27.4634 9.07001 27.8526C9.38563 28.2335 9.63066 28.5896 9.80508 28.9208H9.9795V26.6229H13.1814V40.7334C13.1814 41.9175 12.899 42.8988 12.3342 43.6772C11.7694 44.4556 10.9928 45.0353 10.0044 45.4162C9.02433 45.8054 7.90719 46 6.653 46ZM6.67792 37.7399C7.72446 37.7399 8.53013 37.3672 9.09493 36.622C9.66803 35.8684 9.95459 34.8292 9.95459 33.5042C9.95459 32.6265 9.83 31.8605 9.58082 31.2063C9.33164 30.5521 8.96203 30.0428 8.47199 29.6785C7.98194 29.3141 7.38392 29.132 6.67792 29.132C5.947 29.132 5.33652 29.3224 4.84648 29.7033C4.35643 30.0842 3.98682 30.6059 3.73764 31.2684C3.49677 31.9226 3.37634 32.6679 3.37634 33.5042C3.37634 34.3489 3.50092 35.09 3.7501 35.7276C3.99928 36.3653 4.36889 36.8621 4.85893 37.2182C5.35729 37.566 5.96361 37.7399 6.67792 37.7399Z" fill="url(#paint11_linear_180_312)"/>
<path d="M21.7655 40.7831C20.3701 40.7831 19.1658 40.4932 18.1525 39.9136C17.1392 39.3257 16.3584 38.4976 15.8102 37.4293C15.2703 36.3611 15.0004 35.1024 15.0004 33.6533C15.0004 32.2207 15.2703 30.9662 15.8102 29.8896C16.3501 28.8049 17.1101 27.9602 18.0902 27.3557C19.0703 26.7512 20.2248 26.449 21.5537 26.449C22.4092 26.449 23.2191 26.5856 23.9832 26.8589C24.7556 27.1321 25.4367 27.5545 26.0264 28.1258C26.6245 28.6972 27.0937 29.4259 27.4343 30.312C27.7748 31.1897 27.9451 32.2373 27.9451 33.4545V34.4731H16.5328V32.2745H26.313L24.7806 32.9204C24.7806 32.1338 24.6601 31.4506 24.4193 30.8709C24.1784 30.283 23.8212 29.8234 23.3478 29.4922C22.8744 29.1609 22.2846 28.9953 21.5787 28.9953C20.8727 28.9953 20.2705 29.1609 19.7721 29.4922C19.2738 29.8234 18.8959 30.2706 18.6384 30.8337C18.3809 31.3885 18.2521 32.0095 18.2521 32.6968V34.2247C18.2521 35.0693 18.3975 35.7939 18.6882 36.3984C18.9872 36.9946 19.4025 37.45 19.9341 37.7647C20.474 38.0794 21.1011 38.2367 21.8154 38.2367C22.2805 38.2367 22.7041 38.1705 23.0862 38.038C23.4765 37.9055 23.8088 37.7067 24.0829 37.4418C24.3653 37.1685 24.5812 36.8331 24.7307 36.4356L27.7956 36.7959C27.5963 37.5991 27.2266 38.303 26.6868 38.9075C26.1552 39.5037 25.47 39.9674 24.6311 40.2986C23.8005 40.6216 22.8453 40.7831 21.7655 40.7831Z" fill="url(#paint12_linear_180_312)"/>
<path d="M33.0034 32.3863V40.5098H29.7267V26.6229H32.9411V28.9953H33.103C33.4187 28.2169 33.9129 27.6 34.5856 27.1446C35.2667 26.6808 36.1305 26.449 37.1771 26.449C38.1406 26.449 38.9794 26.6518 39.6938 27.0576C40.4081 27.4634 40.9604 28.0596 41.3508 28.8463C41.7495 29.6247 41.9488 30.5687 41.9488 31.6783V40.5098H38.6721V32.1876C38.6721 31.2601 38.4313 30.5356 37.9495 30.0139C37.4678 29.4839 36.8033 29.2189 35.9561 29.2189C35.383 29.2189 34.8722 29.3431 34.4237 29.5915C33.9835 29.84 33.6346 30.2002 33.3771 30.6722C33.128 31.1359 33.0034 31.7073 33.0034 32.3863Z" fill="url(#paint13_linear_180_312)"/>
<path d="M50.5454 40.7831C49.15 40.7831 47.9456 40.4932 46.9323 39.9136C45.919 39.3257 45.1383 38.4976 44.5901 37.4293C44.0502 36.3611 43.7802 35.1024 43.7802 33.6533C43.7802 32.2207 44.0502 30.9662 44.5901 29.8896C45.1299 28.8049 45.8899 27.9602 46.87 27.3557C47.8501 26.7512 49.0046 26.449 50.3336 26.449C51.1891 26.449 51.9989 26.5856 52.763 26.8589C53.5355 27.1321 54.2166 27.5545 54.8063 28.1258C55.4043 28.6972 55.8736 29.4259 56.2141 30.312C56.5547 31.1897 56.7249 32.2373 56.7249 33.4545V34.4731H45.3127V32.2745H55.0928L53.5604 32.9204C53.5604 32.1338 53.44 31.4506 53.1991 30.8709C52.9582 30.283 52.6011 29.8234 52.1276 29.4922C51.6542 29.1609 51.0645 28.9953 50.3585 28.9953C49.6525 28.9953 49.0503 29.1609 48.552 29.4922C48.0536 29.8234 47.6757 30.2706 47.4182 30.8337C47.1607 31.3885 47.032 32.0095 47.032 32.6968V34.2247C47.032 35.0693 47.1773 35.7939 47.468 36.3984C47.7671 36.9946 48.1824 37.45 48.7139 37.7647C49.2538 38.0794 49.8809 38.2367 50.5952 38.2367C51.0603 38.2367 51.4839 38.1705 51.866 38.038C52.2564 37.9055 52.5886 37.7067 52.8627 37.4418C53.1451 37.1685 53.3611 36.8331 53.5106 36.4356L56.5754 36.7959C56.3761 37.5991 56.0065 38.303 55.4666 38.9075C54.935 39.5037 54.2498 39.9674 53.4109 40.2986C52.5803 40.6216 51.6251 40.7831 50.5454 40.7831Z" fill="url(#paint14_linear_180_312)"/>
<path d="M58.5065 40.5098V26.6229H61.6835V28.9581H61.833C62.0822 28.1465 62.5183 27.5255 63.1412 27.0949C63.7642 26.656 64.4743 26.4365 65.2717 26.4365C65.4461 26.4365 65.6454 26.4448 65.8697 26.4614C66.1023 26.4779 66.2933 26.4986 66.4428 26.5235V29.5294C66.3016 29.4797 66.0815 29.4383 65.7825 29.4052C65.4835 29.3721 65.1969 29.3555 64.9228 29.3555C64.3165 29.3555 63.7766 29.4839 63.3032 29.7406C62.8298 29.9973 62.456 30.3492 62.1819 30.7964C61.9161 31.2436 61.7832 31.7653 61.7832 32.3615V40.5098H58.5065Z" fill="url(#paint15_linear_180_312)"/>
<path d="M71.4139 40.7955C70.5251 40.7955 69.7278 40.6382 69.0218 40.3235C68.3158 40.0005 67.7593 39.5285 67.3523 38.9075C66.9453 38.2864 66.7418 37.5204 66.7418 36.6095C66.7418 35.8311 66.8872 35.1852 67.1779 34.6718C67.4686 34.1584 67.8631 33.7485 68.3615 33.4421C68.8681 33.1357 69.4371 32.9039 70.0683 32.7465C70.6996 32.5809 71.3516 32.465 72.0244 32.3987C72.8466 32.3076 73.5111 32.229 74.0178 32.1627C74.5244 32.0965 74.8899 31.9888 75.1141 31.8398C75.3467 31.6907 75.463 31.4589 75.463 31.1442V31.0821C75.463 30.4113 75.2636 29.8896 74.865 29.517C74.4663 29.1444 73.8849 28.9581 73.1207 28.9581C72.3151 28.9581 71.6755 29.132 71.2021 29.4797C70.7369 29.8275 70.4213 30.2374 70.2552 30.7094L67.2028 30.2747C67.4437 29.4301 67.8423 28.7262 68.3988 28.1631C68.9553 27.5917 69.6323 27.1653 70.4296 26.8837C71.2353 26.5939 72.124 26.449 73.0958 26.449C73.7603 26.449 74.4247 26.5276 75.0892 26.685C75.7537 26.834 76.3642 27.0907 76.9207 27.4551C77.4772 27.8194 77.9215 28.308 78.2538 28.9208C78.586 29.5336 78.7521 30.2995 78.7521 31.2187V40.5098H75.6V38.5969H75.5004C75.301 38.9779 75.0186 39.3381 74.6532 39.6776C74.296 40.0088 73.8475 40.2779 73.3076 40.485C72.776 40.692 72.1448 40.7955 71.4139 40.7955ZM72.2486 38.3858C72.9131 38.3858 73.4862 38.2574 73.9679 38.0007C74.4497 37.7357 74.8234 37.3879 75.0892 36.9573C75.355 36.5184 75.4879 36.0423 75.4879 35.5289V33.9017C75.3799 33.9845 75.2055 34.0632 74.9646 34.1377C74.7238 34.204 74.4497 34.2661 74.1423 34.324C73.835 34.382 73.5319 34.4317 73.2329 34.4731C72.9422 34.5145 72.6888 34.5476 72.4729 34.5725C71.9828 34.6387 71.5426 34.7505 71.1522 34.9078C70.7702 35.0569 70.467 35.2639 70.2427 35.5289C70.0185 35.7939 69.9064 36.1375 69.9064 36.5599C69.9064 37.1644 70.1265 37.6198 70.5667 37.9262C71.0069 38.2326 71.5675 38.3858 72.2486 38.3858Z" fill="url(#paint16_linear_180_312)"/>
<path d="M88.1211 26.6229V29.1568H80.135V26.6229H88.1211ZM82.0911 23.3188H85.3677V36.3363C85.3677 36.8828 85.4882 37.2886 85.729 37.5536C85.9699 37.8103 86.352 37.9386 86.8752 37.9386C87.0164 37.9386 87.1743 37.9262 87.3487 37.9013C87.5231 37.8765 87.6809 37.8475 87.8221 37.8144L88.3828 40.3732C88.0339 40.4808 87.6809 40.5595 87.3238 40.6092C86.9666 40.6671 86.6095 40.6961 86.2523 40.6961C84.9566 40.6961 83.9391 40.3566 83.1999 39.6776C82.4607 38.9903 82.0911 38.0545 82.0911 36.8704V23.3188Z" fill="url(#paint17_linear_180_312)"/>
<path d="M95.8456 40.7831C94.4834 40.7831 93.304 40.485 92.3073 39.8887C91.3106 39.2925 90.5381 38.4562 89.9899 37.3797C89.4501 36.3031 89.1801 35.0527 89.1801 33.6284C89.1801 32.1959 89.4501 30.9413 89.9899 29.8648C90.5381 28.78 91.3106 27.9395 92.3073 27.3433C93.304 26.7471 94.4834 26.449 95.8456 26.449C97.2077 26.449 98.3872 26.7471 99.3839 27.3433C100.381 27.9395 101.153 28.78 101.701 29.8648C102.249 30.9413 102.524 32.1959 102.524 33.6284C102.524 35.0527 102.249 36.3031 101.701 37.3797C101.153 38.4562 100.381 39.2925 99.3839 39.8887C98.3872 40.485 97.2077 40.7831 95.8456 40.7831ZM95.8456 38.1498C96.6014 38.1498 97.2244 37.951 97.7144 37.5536C98.2045 37.1478 98.5699 36.6013 98.8108 35.9139C99.06 35.2266 99.1845 34.4648 99.1845 33.6284C99.1845 32.7755 99.06 32.0054 98.8108 31.3181C98.5699 30.6308 98.2045 30.0884 97.7144 29.6909C97.2244 29.2851 96.6014 29.0823 95.8456 29.0823C95.1064 29.0823 94.4876 29.2851 93.9892 29.6909C93.4909 30.0884 93.1171 30.6308 92.8679 31.3181C92.6271 32.0054 92.5066 32.7755 92.5066 33.6284C92.5066 34.4648 92.6271 35.2266 92.8679 35.9139C93.1171 36.6013 93.4909 37.1478 93.9892 37.5536C94.4876 37.951 95.1064 38.1498 95.8456 38.1498Z" fill="url(#paint18_linear_180_312)"/>
<path d="M104.33 40.5098V26.6229H107.507V28.9581H107.657C107.906 28.1465 108.342 27.5255 108.965 27.0949C109.588 26.656 110.298 26.4365 111.095 26.4365C111.27 26.4365 111.469 26.4448 111.693 26.4614C111.926 26.4779 112.117 26.4986 112.266 26.5235V29.5294C112.125 29.4797 111.905 29.4383 111.606 29.4052C111.307 29.3721 111.02 29.3555 110.746 29.3555C110.14 29.3555 109.6 29.4839 109.127 29.7406C108.653 29.9973 108.279 30.3492 108.005 30.7964C107.74 31.2436 107.607 31.7653 107.607 32.3615V40.5098H104.33Z" fill="url(#paint19_linear_180_312)"/>
<defs>
<linearGradient id="paint0_linear_180_312" x1="-0.585563" y1="-0.828083" x2="126.901" y2="46.0584" gradientUnits="userSpaceOnUse">
<stop stop-color="#3B71CA"/>
<stop offset="1" stop-color="#30A294"/>
</linearGradient>
<linearGradient id="paint1_linear_180_312" x1="-0.585563" y1="-0.828083" x2="126.901" y2="46.0584" gradientUnits="userSpaceOnUse">
<stop stop-color="#3B71CA"/>
<stop offset="1" stop-color="#30A294"/>
</linearGradient>
<linearGradient id="paint2_linear_180_312" x1="-0.585563" y1="-0.828083" x2="126.901" y2="46.0584" gradientUnits="userSpaceOnUse">
<stop stop-color="#3B71CA"/>
<stop offset="1" stop-color="#30A294"/>
</linearGradient>
<linearGradient id="paint3_linear_180_312" x1="-0.585563" y1="-0.828083" x2="126.901" y2="46.0584" gradientUnits="userSpaceOnUse">
<stop stop-color="#3B71CA"/>
<stop offset="1" stop-color="#30A294"/>
</linearGradient>
<linearGradient id="paint4_linear_180_312" x1="-0.585563" y1="-0.828083" x2="126.901" y2="46.0584" gradientUnits="userSpaceOnUse">
<stop stop-color="#3B71CA"/>
<stop offset="1" stop-color="#30A294"/>
</linearGradient>
<linearGradient id="paint5_linear_180_312" x1="-0.585563" y1="-0.828083" x2="126.901" y2="46.0584" gradientUnits="userSpaceOnUse">
<stop stop-color="#3B71CA"/>
<stop offset="1" stop-color="#30A294"/>
</linearGradient>
<linearGradient id="paint6_linear_180_312" x1="-0.585563" y1="-0.828083" x2="126.901" y2="46.0584" gradientUnits="userSpaceOnUse">
<stop stop-color="#3B71CA"/>
<stop offset="1" stop-color="#30A294"/>
</linearGradient>
<linearGradient id="paint7_linear_180_312" x1="-0.585563" y1="-0.828083" x2="126.901" y2="46.0584" gradientUnits="userSpaceOnUse">
<stop stop-color="#3B71CA"/>
<stop offset="1" stop-color="#30A294"/>
</linearGradient>
<linearGradient id="paint8_linear_180_312" x1="-0.585563" y1="-0.828083" x2="126.901" y2="46.0584" gradientUnits="userSpaceOnUse">
<stop stop-color="#3B71CA"/>
<stop offset="1" stop-color="#30A294"/>
</linearGradient>
<linearGradient id="paint9_linear_180_312" x1="-0.585563" y1="-0.828083" x2="126.901" y2="46.0584" gradientUnits="userSpaceOnUse">
<stop stop-color="#3B71CA"/>
<stop offset="1" stop-color="#30A294"/>
</linearGradient>
<linearGradient id="paint10_linear_180_312" x1="-0.585563" y1="-0.828083" x2="126.901" y2="46.0584" gradientUnits="userSpaceOnUse">
<stop stop-color="#3B71CA"/>
<stop offset="1" stop-color="#30A294"/>
</linearGradient>
<linearGradient id="paint11_linear_180_312" x1="-0.585563" y1="-0.828083" x2="126.901" y2="46.0584" gradientUnits="userSpaceOnUse">
<stop stop-color="#3B71CA"/>
<stop offset="1" stop-color="#30A294"/>
</linearGradient>
<linearGradient id="paint12_linear_180_312" x1="-0.585563" y1="-0.828083" x2="126.901" y2="46.0584" gradientUnits="userSpaceOnUse">
<stop stop-color="#3B71CA"/>
<stop offset="1" stop-color="#30A294"/>
</linearGradient>
<linearGradient id="paint13_linear_180_312" x1="-0.585563" y1="-0.828083" x2="126.901" y2="46.0584" gradientUnits="userSpaceOnUse">
<stop stop-color="#3B71CA"/>
<stop offset="1" stop-color="#30A294"/>
</linearGradient>
<linearGradient id="paint14_linear_180_312" x1="-0.585563" y1="-0.828083" x2="126.901" y2="46.0584" gradientUnits="userSpaceOnUse">
<stop stop-color="#3B71CA"/>
<stop offset="1" stop-color="#30A294"/>
</linearGradient>
<linearGradient id="paint15_linear_180_312" x1="-0.585563" y1="-0.828083" x2="126.901" y2="46.0584" gradientUnits="userSpaceOnUse">
<stop stop-color="#3B71CA"/>
<stop offset="1" stop-color="#30A294"/>
</linearGradient>
<linearGradient id="paint16_linear_180_312" x1="-0.585563" y1="-0.828083" x2="126.901" y2="46.0584" gradientUnits="userSpaceOnUse">
<stop stop-color="#3B71CA"/>
<stop offset="1" stop-color="#30A294"/>
</linearGradient>
<linearGradient id="paint17_linear_180_312" x1="-0.585563" y1="-0.828083" x2="126.901" y2="46.0584" gradientUnits="userSpaceOnUse">
<stop stop-color="#3B71CA"/>
<stop offset="1" stop-color="#30A294"/>
</linearGradient>
<linearGradient id="paint18_linear_180_312" x1="-0.585563" y1="-0.828083" x2="126.901" y2="46.0584" gradientUnits="userSpaceOnUse">
<stop stop-color="#3B71CA"/>
<stop offset="1" stop-color="#30A294"/>
</linearGradient>
<linearGradient id="paint19_linear_180_312" x1="-0.585563" y1="-0.828083" x2="126.901" y2="46.0584" gradientUnits="userSpaceOnUse">
<stop stop-color="#3B71CA"/>
<stop offset="1" stop-color="#30A294"/>
</linearGradient>
</defs>
</svg>
